<svg width="23" height="23" viewBox="0 0 23 23" fill="none" xmlns="http://www.w3.org/2000/svg">
<path d="M20.4752 16.9023C19.7556 16.1821 18.9148 15.5943 17.9913 15.1659C19.2936 14.1108 20.1245 12.5008 20.1245 10.6954C20.1245 7.50995 17.4681 4.89666 14.2827 4.94553C11.1461 4.9944 8.61907 7.5502 8.61907 10.6954C8.61907 12.5008 9.4528 14.1108 10.7523 15.1659C9.82856 15.594 8.98769 16.1819 8.26833 16.9023C6.69863 18.4749 5.8074 20.5506 5.7499 22.7643C5.74914 22.7949 5.75452 22.8255 5.76573 22.854C5.77695 22.8826 5.79377 22.9086 5.8152 22.9306C5.83663 22.9526 5.86225 22.97 5.89053 22.982C5.91882 22.9939 5.9492 23 5.9799 23H7.58985C7.71347 23 7.81697 22.9023 7.81984 22.7786C7.87447 21.1112 8.55007 19.5501 9.73741 18.3656C10.345 17.7548 11.0677 17.2706 11.8637 16.9409C12.6597 16.6113 13.5131 16.4428 14.3747 16.4452C16.1255 16.4452 17.7728 17.1265 19.0119 18.3656C20.1964 19.5501 20.872 21.1112 20.9295 22.7786C20.9323 22.9023 21.0358 23 21.1595 23H22.7694C22.8001 23 22.8305 22.9939 22.8588 22.982C22.8871 22.97 22.9127 22.9526 22.9341 22.9306C22.9555 22.9086 22.9724 22.8826 22.9836 22.854C22.9948 22.8255 23.0002 22.7949 22.9994 22.7643C22.9419 20.5506 22.0507 18.4749 20.4752 16.9023ZM14.3747 14.3753C13.3914 14.3753 12.4657 13.9929 11.7729 13.2972C11.4251 12.9522 11.1505 12.5407 10.9653 12.0873C10.78 11.6338 10.688 11.1477 10.6948 10.658C10.7034 9.71502 11.08 8.80367 11.7384 8.12806C12.4283 7.42083 13.3512 7.02697 14.3373 7.01547C15.3119 7.00684 16.2577 7.38633 16.9534 8.06769C17.6664 8.76629 18.0574 9.70064 18.0574 10.6954C18.0574 11.6786 17.6751 12.6014 16.9793 13.2972C16.638 13.6401 16.232 13.912 15.785 14.0971C15.3379 14.2821 14.8585 14.3767 14.3747 14.3753ZM7.17299 11.4543C7.14711 11.2042 7.13274 10.9512 7.13274 10.6954C7.13274 10.2382 7.17586 9.79264 7.25636 9.35853C7.27648 9.25503 7.22186 9.14866 7.12699 9.10553C6.736 8.93016 6.37664 8.68867 6.06614 8.38393C5.70028 8.02919 5.41238 7.60207 5.22082 7.12984C5.02925 6.65761 4.93823 6.15064 4.95355 5.64126C4.97943 4.71841 5.35029 3.84156 5.99715 3.18033C6.70725 2.45298 7.66172 2.05624 8.67657 2.06774C9.59367 2.07636 10.4791 2.42998 11.149 3.05671C11.3761 3.26945 11.5716 3.5052 11.7355 3.75819C11.793 3.84731 11.9051 3.88469 12.0028 3.85019C12.5088 3.67482 13.0436 3.5512 13.5927 3.4937C13.7537 3.47645 13.8457 3.30395 13.7738 3.16021C12.8394 1.31164 10.9305 0.0351736 8.72257 0.000674563C5.53428 -0.048199 2.87786 2.5651 2.87786 5.74763C2.87786 7.55308 3.70871 9.16303 5.01105 10.2181C4.09683 10.6407 3.25448 11.2243 2.52425 11.9546C0.948794 13.5272 0.0575702 15.6028 7.18901e-05 17.8194C-0.000695439 17.8501 0.00468648 17.8806 0.0159007 17.9092C0.0271149 17.9378 0.0439344 17.9638 0.0653681 17.9858C0.0868019 18.0077 0.112416 18.0252 0.140702 18.0371C0.168988 18.049 0.199372 18.0552 0.230065 18.0551H1.84289C1.96651 18.0551 2.07001 17.9574 2.07289 17.8338C2.12751 16.1663 2.80311 14.6052 3.99045 13.4208C4.83568 12.5756 5.87065 11.9891 7.00049 11.7045C7.11261 11.6757 7.18736 11.5693 7.17299 11.4543Z" fill="#F2F2F2"/>
</svg>
