<svg width="24" height="22" viewBox="0 0 24 22" fill="none" xmlns="http://www.w3.org/2000/svg">
<path fill-rule="evenodd" clip-rule="evenodd" d="M11.9206 0.0957275L22.6665 5.89788C23.0537 6.10848 23.1983 6.59243 22.9898 6.97853C22.7803 7.3657 22.2953 7.50716 21.9081 7.30188L21.0381 6.83175L19.3086 19.053C19.0767 20.3708 17.9142 21.2728 16.4761 21.2728H6.60342C5.16751 21.2728 4.00389 20.3719 3.77627 19.0795L2.04361 6.83388L1.17674 7.30188C1.05655 7.3657 0.925722 7.3976 0.798085 7.3976C0.515157 7.3976 0.239675 7.2455 0.0960839 6.9796C-0.113453 6.59137 0.031202 6.10741 0.418366 5.89788L11.1622 0.0957275C11.3994 -0.0319092 11.6834 -0.0319092 11.9206 0.0957275ZM16.4782 19.6773C16.9856 19.6773 17.6195 19.4476 17.7333 18.803L19.5415 6.02338L11.5408 1.70501L3.54227 6.02551L5.35258 18.8285C5.46214 19.4476 6.095 19.6773 6.60555 19.6773H16.4782ZM11.5413 14.826C9.32362 14.826 7.52075 13.0221 7.52075 10.8055C7.52075 8.58887 9.32362 6.78494 11.5413 6.78494C13.759 6.78494 15.5619 8.58887 15.5619 10.8055C15.5619 13.0221 13.759 14.826 11.5413 14.826ZM11.5413 13.2306C12.8794 13.2306 13.9664 12.1435 13.9664 10.8055C13.9664 9.46743 12.8794 8.38039 11.5413 8.38039C10.2032 8.38039 9.11621 9.46743 9.11621 10.8055C9.11621 12.1435 10.2032 13.2306 11.5413 13.2306Z" fill="#F2F2F2"/>
</svg>
