<svg width="22" height="20" viewBox="0 0 22 20" fill="none" xmlns="http://www.w3.org/2000/svg">
<path d="M18.975 0H3.025C1.3563 0 0 1.37111 0 3.05778V16.9411C0 18.6278 1.3563 20 3.025 20H18.975C20.6437 20 22 18.6278 22 16.9411V3.05778C22 1.37111 20.6437 0 18.975 0ZM3.025 1.66667H18.975C19.734 1.66667 20.35 2.28889 20.35 3.05556V3.84889L11.495 9.81222C11.1947 10.0122 10.8064 10.0144 10.505 9.81L1.65 3.84889V3.05556C1.65 2.28889 2.266 1.66667 3.025 1.66667ZM18.975 18.3311H3.025C2.266 18.3311 1.65 17.7089 1.65 16.9422V5.80222L9.614 11.1689C10.0353 11.4533 10.5182 11.5956 11 11.5956C11.484 11.5956 11.9647 11.4533 12.386 11.17L20.35 5.80333V16.9389C20.35 17.7056 19.734 18.3278 18.975 18.3278V18.3311Z" fill="#F2F2F2"/>
</svg>
