<svg width="19" height="23" viewBox="0 0 19 23" fill="none" xmlns="http://www.w3.org/2000/svg">
<path d="M9.50012 11.4887C11.0416 11.4887 12.7673 11.3191 13.8685 10.0684C14.7945 9.01681 15.0949 7.39076 14.7854 5.10207C14.3531 1.90762 12.3771 0 9.50012 0C6.62312 0 4.6471 1.90762 4.21481 5.10433C3.90538 7.39076 4.2057 9.01681 5.13171 10.0684C6.23292 11.3202 7.95866 11.4887 9.50012 11.4887ZM5.90529 5.32822C6.08958 3.97129 6.80058 1.69616 9.50012 1.69616C12.1997 1.69616 12.9107 3.97242 13.095 5.32822C13.3304 7.08092 13.1598 8.29877 12.583 8.95236C12.0654 9.54036 11.1428 9.79253 9.50012 9.79253C7.85742 9.79253 6.93482 9.54036 6.41721 8.95236C5.84044 8.29877 5.6698 7.07979 5.90529 5.32822ZM18.9195 19.8791C17.9218 15.8919 14.0483 13.1057 9.50012 13.1057C4.95197 13.1057 1.07843 15.8919 0.0807466 19.8791C-0.114921 20.6616 0.0488934 21.4621 0.5301 22.0728C0.994244 22.6608 1.71321 23 2.50157 23H16.4987C17.287 23 18.006 22.6608 18.4701 22.0728C18.9525 21.4621 19.1152 20.6627 18.9184 19.8791H18.9195ZM17.1266 21.0279C16.9833 21.2088 16.7671 21.3061 16.4987 21.3061H2.50157C2.23423 21.3061 2.01695 21.21 1.87361 21.0279C1.71776 20.8312 1.66884 20.562 1.7371 20.2884C2.5448 17.06 5.73806 14.8041 9.50012 14.8041C13.2622 14.8041 16.4554 17.0589 17.2631 20.2884C17.3314 20.562 17.2825 20.8312 17.1266 21.0279Z" fill="#F2F2F2"/>
</svg>
