<svg width="130" height="22" viewBox="0 0 130 22" fill="none" xmlns="http://www.w3.org/2000/svg">
<path d="M18.3545 4.6416H11.9531V22H6.81152V4.6416H0.527344V0.671875H18.3545V4.6416ZM32.4146 12.9619H24.3287V18.0449H33.8795V22H19.1871V0.671875H33.9088V4.6416H24.3287V9.13867H32.4146V12.9619ZM46.7385 18.0156H39.6926L38.4621 22H32.9689L40.7912 0.671875H45.6252L53.5061 22H47.9836L46.7385 18.0156ZM40.923 14.0459H45.508L43.2082 6.64844L40.923 14.0459ZM60.4764 0.671875L65.2371 15.5107L69.9832 0.671875H76.7508V22H71.5945V17.0195L72.0926 6.82422L66.9363 22H63.5379L58.367 6.80957L58.865 17.0195V22H53.7234V0.671875H60.4764ZM78.682 22V0.671875H85.5521C87.4369 0.671875 89.1312 1.10156 90.6352 1.96094C92.1391 2.81055 93.3109 4.0166 94.1508 5.5791C95.0004 7.13184 95.4301 8.875 95.4398 10.8086V11.79C95.4398 13.7432 95.0248 15.4961 94.1947 17.0488C93.3744 18.5918 92.2123 19.8027 90.7084 20.6816C89.2143 21.5508 87.5443 21.9902 85.6986 22H78.682ZM83.8236 4.6416V18.0449H85.6107C87.0854 18.0449 88.2182 17.5225 89.0092 16.4775C89.8002 15.4229 90.1957 13.8604 90.1957 11.79V10.8672C90.1957 8.80664 89.8002 7.25391 89.0092 6.20898C88.2182 5.16406 87.0658 4.6416 85.5521 4.6416H83.8236ZM109.954 12.9619H101.868V18.0449H111.419V22H96.7266V0.671875H111.448V4.6416H101.868V9.13867H109.954V12.9619ZM120.088 14.4707H117.305V22H112.164V0.671875H120.557C123.087 0.671875 125.064 1.2334 126.49 2.35645C127.916 3.47949 128.629 5.06641 128.629 7.11719C128.629 8.60156 128.326 9.83203 127.72 10.8086C127.125 11.7852 126.187 12.5762 124.908 13.1816L129.361 21.7803V22H123.853L120.088 14.4707ZM117.305 10.501H120.557C121.534 10.501 122.266 10.2471 122.754 9.73926C123.253 9.22168 123.502 8.50391 123.502 7.58594C123.502 6.66797 123.253 5.9502 122.754 5.43262C122.256 4.90527 121.524 4.6416 120.557 4.6416H117.305V10.501Z" fill="white"/>
</svg>
