<svg width="27" height="27" viewBox="0 0 27 27" fill="none" xmlns="http://www.w3.org/2000/svg">
<path d="M23.3501 13.5327C23.3453 12.0653 23.1794 10.6023 22.855 9.16734H27C26.7865 8.5688 26.5288 7.9853 26.2286 7.42118H22.3714C21.6463 5.12504 20.5217 2.95984 19.0439 1.01496C18.0998 0.63866 17.1153 0.360558 16.1079 0.18553C18.1324 2.24735 19.6606 4.70119 20.5868 7.37753H14.3808V0H12.6537V7.38844H6.44776C7.37586 4.70726 8.90808 2.24949 10.9382 0.18553C9.93505 0.357638 8.95451 0.632071 8.01365 1.00404C6.53003 2.94078 5.39765 5.09852 4.66311 7.38844H0.782942C0.477327 7.96286 0.215672 8.55736 0 9.16734H4.17953C3.85517 10.6023 3.68925 12.0653 3.68444 13.5327C3.68762 15.1379 3.88072 16.7376 4.26013 18.3019H0.184222C0.42242 18.9137 0.707178 19.5082 1.03625 20.0808H4.75522C5.46011 22.1716 6.50511 24.1453 7.85245 25.9305C8.81728 26.3227 9.8252 26.6119 10.8576 26.7926C8.97842 24.8498 7.53324 22.5667 6.60896 20.0808H12.6652V27H14.3923V20.0808H20.4256C19.4982 22.5678 18.049 24.8509 16.1655 26.7926C17.2027 26.6057 18.2145 26.3091 19.1821 25.9087C20.5273 24.1302 21.5722 22.164 22.2793 20.0808H25.9638C26.2913 19.5188 26.5761 18.9352 26.8158 18.3347H22.7284C23.1258 16.7614 23.3344 15.1505 23.3501 13.5327ZM12.6537 18.3019H6.04478C5.23417 15.2984 5.19862 12.1539 5.94115 9.1346H12.6537V18.3019ZM20.9898 18.3019H14.3808V9.16734H21.0934C21.4241 10.6011 21.5863 12.0651 21.577 13.5327C21.5863 15.1392 21.3891 16.7407 20.9898 18.3019Z" fill="white"/>
</svg>
